<svg width="70" height="20" viewBox="0 0 70 20" fill="none" xmlns="http://www.w3.org/2000/svg">
<path d="M70 0L18.7888 17.7979C14.5421 19.2644 10.975 20 8.09035 20C4.82366 20 2.45239 19.0668 0.982381 17.198C0.0577908 15.9981 -0.213461 14.4768 0.165708 12.6318C0.544878 10.7868 1.55405 8.82276 3.1874 6.73253C4.54949 5.04226 6.78076 2.82109 9.88703 0.0666584C8.83342 1.42046 8.06081 2.90693 7.60035 4.46613C6.78368 7.31103 7.51868 9.39888 9.80537 10.7321C10.8933 11.3534 12.3896 11.6653 14.2971 11.6653C15.8196 11.6653 17.5346 11.4653 19.4421 11.0653L70 0Z" fill="#FFFFFF"/>
</svg>
